<svg viewBox="0 0 1080 700" xmlns="http://www.w3.org/2000/svg" role="img" aria-labelledby="ttl dsc" font-family="ui-sans-serif, -apple-system, 'Segoe UI', Roboto, Helvetica, Arial, sans-serif">
  <title id="ttl">AISIX AI Gateway architecture</title>
  <desc id="dsc">Your apps speak one OpenAI- or Anthropic-compatible API to the AISIX gateway, which applies API key auth, rate limiting and budgets, guardrails, caching, routing and failover, and observability, then dispatches to providers including OpenAI, Anthropic, Google Gemini, AWS Bedrock, Azure OpenAI, DeepSeek, and any OpenAI-compatible endpoint.</desc>
  <defs>
    <marker id="arw" viewBox="0 0 10 10" refX="8" refY="5" markerWidth="7" markerHeight="7" orient="auto-start-reverse">
      <path d="M0,0 L10,5 L0,10 z" fill="#2f54eb"/>
    </marker>
  </defs>
  <style>
    .bg{fill:#f6f8fc;}
    .zlabel{fill:#6b7280;font-size:16px;font-weight:700;letter-spacing:2px;}
    .pill{fill:#ffffff;stroke:#dfe3ee;stroke-width:1.5;}
    .ptext{fill:#1f2733;font-size:18px;font-weight:600;}
    .cap{fill:#8a909c;font-size:15px;}
    .gw{fill:#ffffff;stroke:#2f54eb;stroke-width:2.5;}
    .gwtitle{fill:#2f54eb;font-size:27px;font-weight:800;}
    .gwsub{fill:#8a909c;font-size:15.5px;font-weight:600;}
    .chip{fill:#eef2ff;stroke:#c7d2fe;stroke-width:1.5;}
    .ctext{fill:#1e2746;font-size:18px;font-weight:700;}
    .csub{fill:#6b7280;font-size:14px;}
    .obs{fill:#f0f4ff;stroke:#c7d2fe;stroke-width:1.5;}
    .otext{fill:#3a4668;font-size:16px;font-weight:600;}
    .flow{stroke:#2f54eb;stroke-width:3;fill:none;}
    .dot{fill:#2f54eb;}
  </style>

  <rect class="bg" x="0" y="0" width="1080" height="700" rx="22"/>

  <!-- LEFT: apps -->
  <text class="zlabel" x="40" y="62">YOUR APPS &amp; AGENTS</text>
  <rect class="pill" x="40" y="78" width="250" height="48" rx="13"/>
  <svg x="56" y="90" width="24" height="24" viewBox="0 0 24 24" fill="#0d0d0d"><path d="M9.205 8.658v-2.26c0-.19.072-.333.238-.428l4.543-2.616c.619-.357 1.356-.523 2.117-.523 2.854 0 4.662 2.212 4.662 4.566 0 .167 0 .357-.024.547l-4.71-2.759a.797.797 0 00-.856 0l-5.97 3.473zm10.609 8.8V12.06c0-.333-.143-.57-.429-.737l-5.97-3.473 1.95-1.118a.433.433 0 01.476 0l4.543 2.617c1.309.76 2.189 2.378 2.189 3.948 0 1.808-1.07 3.473-2.76 4.163zM7.802 12.703l-1.95-1.142c-.167-.095-.239-.238-.239-.428V5.899c0-2.545 1.95-4.472 4.591-4.472 1 0 1.927.333 2.712.928L8.23 5.067c-.285.166-.428.404-.428.737v6.898zM12 15.128l-2.795-1.57v-3.33L12 8.658l2.795 1.57v3.33L12 15.128zm1.796 7.23c-1 0-1.927-.332-2.712-.927l4.686-2.712c.285-.166.428-.404.428-.737v-6.898l1.974 1.142c.167.095.238.238.238.428v5.233c0 2.545-1.974 4.472-4.614 4.472zm-5.637-5.303l-4.544-2.617c-1.308-.761-2.188-2.378-2.188-3.948A4.482 4.482 0 014.21 6.327v5.423c0 .333.143.571.428.738l5.947 3.449-1.95 1.118a.432.432 0 01-.476 0zm-.262 3.9c-2.688 0-4.662-2.021-4.662-4.519 0-.19.024-.38.047-.57l4.686 2.71c.286.167.571.167.856 0l5.97-3.448v2.26c0 .19-.07.333-.237.428l-4.543 2.616c-.619.357-1.356.523-2.117.523zm5.899 2.83a5.947 5.947 0 005.827-4.756C22.287 18.339 24 15.84 24 13.296c0-1.665-.713-3.282-1.998-4.448.119-.5.19-.999.19-1.498 0-3.401-2.759-5.947-5.946-5.947-.642 0-1.26.095-1.88.31A5.962 5.962 0 0010.205 0a5.947 5.947 0 00-5.827 4.757C1.713 5.447 0 7.945 0 10.49c0 1.666.713 3.283 1.998 4.448-.119.5-.19 1-.19 1.499 0 3.401 2.759 5.946 5.946 5.946.642 0 1.26-.095 1.88-.309a5.96 5.96 0 004.162 1.713z"/></svg>
  <text class="ptext" x="92" y="108">OpenAI SDK</text>
  <rect class="pill" x="40" y="136" width="250" height="48" rx="13"/>
  <svg x="56" y="148" width="24" height="24" viewBox="0 0 24 24" fill="#d97757"><path d="M13.827 3.52h3.603L24 20h-3.603l-6.57-16.48zm-7.258 0h3.767L16.906 20h-3.674l-1.343-3.461H5.017l-1.344 3.46H0L6.57 3.522zm4.132 9.959L8.453 7.687 6.205 13.48H10.7z"/></svg>
  <text class="ptext" x="92" y="166">Anthropic SDK</text>
  <rect class="pill" x="40" y="194" width="250" height="48" rx="13"/>
  <svg x="56" y="206" width="24" height="24" viewBox="0 0 24 24" fill="#1c7dc4"><path d="M13.796 0a6.93 6.93 0 0 0-4.91 2.019L5.451 5.455l3.273 3.27 3.432-3.432a2.284 2.284 0 0 1 3.277 0 2.28 2.28 0 0 1 0 3.275L12 12.001l3.273 3.273 3.433-3.435c2.692-2.692 2.692-7.127 0-9.82A6.92 6.92 0 0 0 13.796 0m-5.07 8.728-3.433 3.434c-2.692 2.693-2.692 7.126 0 9.819A6.92 6.92 0 0 0 10.203 24a6.93 6.93 0 0 0 4.911-2.02l3.432-3.432-3.271-3.272-3.433 3.433a2.284 2.284 0 0 1-3.277 0 2.28 2.28 0 0 1 0-3.276L12 12z"/></svg>
  <text class="ptext" x="92" y="224">LangChain · agents</text>
  <rect class="pill" x="40" y="252" width="250" height="48" rx="13"/>
  <svg x="56" y="264" width="24" height="24" viewBox="0 0 24 24" fill="none" stroke="#6b7280" stroke-width="2" stroke-linecap="round" stroke-linejoin="round"><rect x="2.5" y="4.5" width="19" height="15" rx="2.5"/><path d="M6.5 9.5l3 2.5-3 2.5"/><path d="M12.5 15h5"/></svg>
  <text class="ptext" x="92" y="282">curl · HTTP</text>
  <text class="cap" x="40" y="338">one OpenAI- /</text>
  <text class="cap" x="40" y="360">Anthropic-compatible API</text>

  <path class="flow" d="M294,274 L336,274" marker-end="url(#arw)"/>

  <!-- CENTER: gateway -->
  <rect class="gw" x="340" y="68" width="440" height="412" rx="22"/>
  <circle class="dot" cx="366" cy="106" r="7"/>
  <text class="gwtitle" x="384" y="115">AISIX AI Gateway</text>
  <text class="gwsub" x="385" y="143">open-source core · single Rust binary</text>

  <rect class="chip" x="360" y="166" width="192" height="92" rx="13"/>
  <text class="ctext" x="456" y="206" text-anchor="middle">API key auth</text>
  <text class="csub" x="456" y="230" text-anchor="middle">keys · model scope</text>
  <rect class="chip" x="568" y="166" width="192" height="92" rx="13"/>
  <text class="ctext" x="664" y="206" text-anchor="middle">Rate limiting</text>
  <text class="csub" x="664" y="230" text-anchor="middle">RPM · TPM · concurrency</text>

  <rect class="chip" x="360" y="270" width="192" height="92" rx="13"/>
  <text class="ctext" x="456" y="310" text-anchor="middle">Guardrails</text>
  <text class="csub" x="456" y="334" text-anchor="middle">input + output · block</text>
  <rect class="chip" x="568" y="270" width="192" height="92" rx="13"/>
  <text class="ctext" x="664" y="310" text-anchor="middle">Response cache</text>
  <text class="csub" x="664" y="334" text-anchor="middle">exact-match · Redis</text>

  <rect class="chip" x="360" y="374" width="192" height="92" rx="13"/>
  <text class="ctext" x="456" y="414" text-anchor="middle">Routing &amp; failover</text>
  <text class="csub" x="456" y="438" text-anchor="middle">virtual models · weighted</text>
  <rect class="chip" x="568" y="374" width="192" height="92" rx="13"/>
  <text class="ctext" x="664" y="414" text-anchor="middle">Unified API</text>
  <text class="csub" x="664" y="438" text-anchor="middle">chat · embed · audio</text>

  <path class="flow" d="M784,274 L826,274" marker-end="url(#arw)"/>

  <!-- RIGHT: providers -->
  <text class="zlabel" x="830" y="62">PROVIDERS</text>
  <rect class="pill" x="830" y="78" width="230" height="46" rx="13"/>
  <svg x="846" y="89" width="24" height="24" viewBox="0 0 24 24" fill="#0d0d0d"><path d="M9.205 8.658v-2.26c0-.19.072-.333.238-.428l4.543-2.616c.619-.357 1.356-.523 2.117-.523 2.854 0 4.662 2.212 4.662 4.566 0 .167 0 .357-.024.547l-4.71-2.759a.797.797 0 00-.856 0l-5.97 3.473zm10.609 8.8V12.06c0-.333-.143-.57-.429-.737l-5.97-3.473 1.95-1.118a.433.433 0 01.476 0l4.543 2.617c1.309.76 2.189 2.378 2.189 3.948 0 1.808-1.07 3.473-2.76 4.163zM7.802 12.703l-1.95-1.142c-.167-.095-.239-.238-.239-.428V5.899c0-2.545 1.95-4.472 4.591-4.472 1 0 1.927.333 2.712.928L8.23 5.067c-.285.166-.428.404-.428.737v6.898zM12 15.128l-2.795-1.57v-3.33L12 8.658l2.795 1.57v3.33L12 15.128zm1.796 7.23c-1 0-1.927-.332-2.712-.927l4.686-2.712c.285-.166.428-.404.428-.737v-6.898l1.974 1.142c.167.095.238.238.238.428v5.233c0 2.545-1.974 4.472-4.614 4.472zm-5.637-5.303l-4.544-2.617c-1.308-.761-2.188-2.378-2.188-3.948A4.482 4.482 0 014.21 6.327v5.423c0 .333.143.571.428.738l5.947 3.449-1.95 1.118a.432.432 0 01-.476 0zm-.262 3.9c-2.688 0-4.662-2.021-4.662-4.519 0-.19.024-.38.047-.57l4.686 2.71c.286.167.571.167.856 0l5.97-3.448v2.26c0 .19-.07.333-.237.428l-4.543 2.616c-.619.357-1.356.523-2.117.523zm5.899 2.83a5.947 5.947 0 005.827-4.756C22.287 18.339 24 15.84 24 13.296c0-1.665-.713-3.282-1.998-4.448.119-.5.19-.999.19-1.498 0-3.401-2.759-5.947-5.946-5.947-.642 0-1.26.095-1.88.31A5.962 5.962 0 0010.205 0a5.947 5.947 0 00-5.827 4.757C1.713 5.447 0 7.945 0 10.49c0 1.666.713 3.283 1.998 4.448-.119.5-.19 1-.19 1.499 0 3.401 2.759 5.946 5.946 5.946.642 0 1.26-.095 1.88-.309a5.96 5.96 0 004.162 1.713z"/></svg>
  <text class="ptext" x="882" y="107">OpenAI</text>
  <rect class="pill" x="830" y="134" width="230" height="46" rx="13"/>
  <svg x="846" y="145" width="24" height="24" viewBox="0 0 24 24" fill="#d97757"><path d="M13.827 3.52h3.603L24 20h-3.603l-6.57-16.48zm-7.258 0h3.767L16.906 20h-3.674l-1.343-3.461H5.017l-1.344 3.46H0L6.57 3.522zm4.132 9.959L8.453 7.687 6.205 13.48H10.7z"/></svg>
  <text class="ptext" x="882" y="163">Anthropic</text>
  <rect class="pill" x="830" y="190" width="230" height="46" rx="13"/>
  <svg x="846" y="201" width="24" height="24" viewBox="0 0 24 24" fill="#4285f4"><path d="M20.616 10.835a14.147 14.147 0 01-4.45-3.001 14.111 14.111 0 01-3.678-6.452.503.503 0 00-.975 0 14.134 14.134 0 01-3.679 6.452 14.155 14.155 0 01-4.45 3.001c-.65.28-1.318.505-2.002.678a.502.502 0 000 .975c.684.172 1.35.397 2.002.677a14.147 14.147 0 014.45 3.001 14.112 14.112 0 013.679 6.453.502.502 0 00.975 0c.172-.685.397-1.351.677-2.003a14.145 14.145 0 013.001-4.45 14.113 14.113 0 016.453-3.678.503.503 0 000-.975 13.245 13.245 0 01-2.003-.678z"/></svg>
  <text class="ptext" x="882" y="219">Google Gemini</text>
  <rect class="pill" x="830" y="246" width="230" height="46" rx="13"/>
  <svg x="846" y="257" width="24" height="24" viewBox="0 0 24 24" fill="#ff9900"><path d="M13.05 15.513h3.08c.214 0 .389.177.389.394v1.82a1.704 1.704 0 011.296 1.661c0 .943-.755 1.708-1.685 1.708-.931 0-1.686-.765-1.686-1.708 0-.807.554-1.484 1.297-1.662v-1.425h-2.69v4.663a.395.395 0 01-.188.338l-2.69 1.641a.385.385 0 01-.405-.002l-4.926-3.086a.395.395 0 01-.185-.336V16.3L2.196 14.87A.395.395 0 012 14.555L2 14.528V9.406c0-.14.073-.27.192-.34l2.465-1.462V4.448c0-.129.062-.249.165-.322l.021-.014L9.77 1.058a.385.385 0 01.407 0l2.69 1.675a.395.395 0 01.185.336V7.6h3.856V5.683a1.704 1.704 0 01-1.296-1.662c0-.943.755-1.708 1.685-1.708.931 0 1.685.765 1.685 1.708 0 .807-.553 1.484-1.296 1.662v2.311a.391.391 0 01-.389.394h-4.245v1.806h6.624a1.69 1.69 0 011.64-1.313c.93 0 1.685.764 1.685 1.707 0 .943-.754 1.708-1.685 1.708a1.69 1.69 0 01-1.64-1.314H13.05v1.937h4.953l.915 1.18a1.66 1.66 0 01.84-.227c.931 0 1.685.764 1.685 1.707 0 .943-.754 1.708-1.685 1.708-.93 0-1.685-.765-1.685-1.708 0-.346.102-.668.276-.937l-.724-.935H13.05v1.806zM9.973 1.856L7.93 3.122V6.09h-.778V3.604L5.435 4.669v2.945l2.11 1.36L9.712 7.61V5.334h.778V7.83c0 .136-.07.263-.184.335L7.963 9.638v2.081l1.422 1.009-.446.646-1.406-.998-1.53 1.005-.423-.66 1.605-1.055v-1.99L5.038 8.29l-2.26 1.34v1.676l1.972-1.189.398.677-2.37 1.429V14.3l2.166 1.258 2.27-1.368.397.677-2.176 1.311V19.3l1.876 1.175 2.365-1.426.398.678-2.017 1.216 1.918 1.201 2.298-1.403v-5.78l-4.758 2.893-.4-.675 5.158-3.136V3.289L9.972 1.856zM16.13 18.47a.913.913 0 00-.908.92c0 .507.406.918.908.918a.913.913 0 00.907-.919.913.913 0 00-.907-.92zm3.63-3.81a.913.913 0 00-.908.92c0 .508.406.92.907.92a.913.913 0 00.908-.92.913.913 0 00-.908-.92zm1.555-4.99a.913.913 0 00-.908.92c0 .507.407.918.908.918a.913.913 0 00.907-.919.913.913 0 00-.907-.92zM17.296 3.1a.913.913 0 00-.907.92c0 .508.406.92.907.92a.913.913 0 00.908-.92.913.913 0 00-.908-.92z"/></svg>
  <text class="ptext" x="882" y="275">AWS Bedrock</text>
  <rect class="pill" x="830" y="302" width="230" height="46" rx="13"/>
  <svg x="846" y="313" width="24" height="24" viewBox="0 0 24 24" fill="#0078d4"><path d="M18.397 15.296H7.4a.51.51 0 00-.347.882l7.066 6.595c.206.192.477.298.758.298h6.226l-2.706-7.775z" fill-opacity=".75"/><path d="M8.295.857c-.477 0-.9.304-1.053.756L.495 21.605a1.11 1.11 0 001.052 1.466h5.43c.477 0 .9-.304 1.053-.755l1.341-3.975-2.318-2.163a.51.51 0 01.347-.882h3L15.271.857H8.295z" fill-opacity=".5"/><path d="M17.193 1.613a1.11 1.11 0 00-1.052-.756h-7.81.035c.477 0 .9.304 1.052.756l6.748 19.992a1.11 1.11 0 01-1.052 1.466h-.12 7.895a1.11 1.11 0 001.052-1.466L17.193 1.613z"/></svg>
  <text class="ptext" x="882" y="331">Azure OpenAI</text>
  <rect class="pill" x="830" y="358" width="230" height="46" rx="13"/>
  <svg x="846" y="369" width="24" height="24" viewBox="0 0 24 24" fill="#4d6bfe"><path d="M23.748 4.482c-.254-.124-.364.113-.512.234-.051.039-.094.09-.137.136-.372.397-.806.657-1.373.626-.829-.046-1.537.214-2.163.848-.133-.782-.575-1.248-1.247-1.548-.352-.156-.708-.311-.955-.65-.172-.241-.219-.51-.305-.774-.055-.16-.11-.323-.293-.35-.2-.031-.278.136-.356.276-.313.572-.434 1.202-.422 1.84.027 1.436.633 2.58 1.838 3.393.137.093.172.187.129.323-.082.28-.18.552-.266.833-.055.179-.137.217-.329.14a5.526 5.526 0 01-1.736-1.18c-.857-.828-1.631-1.742-2.597-2.458a11.365 11.365 0 00-.689-.471c-.985-.957.13-1.743.388-1.836.27-.098.093-.432-.779-.428-.872.004-1.67.295-2.687.684a3.055 3.055 0 01-.465.137 9.597 9.597 0 00-2.883-.102c-1.885.21-3.39 1.102-4.497 2.623C.082 8.606-.231 10.684.152 12.85c.403 2.284 1.569 4.175 3.36 5.653 1.858 1.533 3.997 2.284 6.438 2.14 1.482-.085 3.133-.284 4.994-1.86.47.234.962.327 1.78.397.63.059 1.236-.03 1.705-.128.735-.156.684-.837.419-.961-2.155-1.004-1.682-.595-2.113-.926 1.096-1.296 2.746-2.642 3.392-7.003.05-.347.007-.565 0-.845-.004-.17.035-.237.23-.256a4.173 4.173 0 001.545-.475c1.396-.763 1.96-2.015 2.093-3.517.02-.23-.004-.467-.247-.588zM11.581 18c-2.089-1.642-3.102-2.183-3.52-2.16-.392.024-.321.471-.235.763.09.288.207.486.371.739.114.167.192.416-.113.603-.673.416-1.842-.14-1.897-.167-1.361-.802-2.5-1.86-3.301-3.307-.774-1.393-1.224-2.887-1.298-4.482-.02-.386.093-.522.477-.592a4.696 4.696 0 011.529-.039c2.132.312 3.946 1.265 5.468 2.774.868.86 1.525 1.887 2.202 2.891.72 1.066 1.494 2.082 2.48 2.914.348.292.625.514.891.677-.802.09-2.14.11-3.054-.614zm1-6.44a.306.306 0 01.415-.287.302.302 0 01.2.288.306.306 0 01-.31.307.303.303 0 01-.304-.308zm3.11 1.596c-.2.081-.399.151-.59.16a1.245 1.245 0 01-.798-.254c-.274-.23-.47-.358-.552-.758a1.73 1.73 0 01.016-.588c.07-.327-.008-.537-.239-.727-.187-.156-.426-.199-.688-.199a.559.559 0 01-.254-.078c-.11-.054-.2-.19-.114-.358.028-.054.16-.186.192-.21.356-.202.767-.136 1.146.016.352.144.618.408 1.001.782.391.451.462.576.685.914.176.265.336.537.445.848.067.195-.019.354-.25.452z"/></svg>
  <text class="ptext" x="882" y="387">DeepSeek</text>
  <text class="cap" x="830" y="436">+ any OpenAI-compatible</text>

  <path class="flow" d="M560,484 L560,508" marker-end="url(#arw)"/>

  <!-- BOTTOM: observability plane -->
  <rect class="obs" x="40" y="512" width="1020" height="156" rx="16"/>
  <text class="zlabel" x="64" y="548" fill="#2f54eb">OBSERVABILITY</text>

  <svg x="64" y="572" width="22" height="22" viewBox="0 0 24 24" fill="#e6522c"><path d="M12 0C5.373 0 0 5.372 0 12c0 6.627 5.373 12 12 12s12-5.373 12-12c0-6.628-5.373-12-12-12zm0 22.46c-1.885 0-3.414-1.26-3.414-2.814h6.828c0 1.553-1.528 2.813-3.414 2.813zm5.64-3.745H6.36v-2.046h11.28v2.046zm-.04-3.098H6.391c-.037-.043-.075-.086-.111-.13-1.155-1.401-1.427-2.133-1.69-2.879-.005-.025 1.4.287 2.395.511 0 0 .513.119 1.262.255-.72-.843-1.147-1.915-1.147-3.01 0-2.406 1.845-4.508 1.18-6.207.648.053 1.34 1.367 1.387 3.422.689-.951.977-2.69.977-3.755 0-1.103.727-2.385 1.454-2.429-.648 1.069.168 1.984.894 4.256.272.854.237 2.29.447 3.201.07-1.892.395-4.652 1.595-5.605-.529 1.2.079 2.702.494 3.424.671 1.164 1.078 2.047 1.078 3.716a4.642 4.642 0 01-1.11 2.996c.792-.149 1.34-.283 1.34-.283l2.573-.502s-.374 1.538-1.81 3.019z"/></svg>
  <text class="otext" x="94" y="588">Prometheus</text>
  <svg x="312" y="572" width="22" height="22" viewBox="0 0 24 24" fill="#4f62ad"><path d="M12.6974 13.1173c-1.0224 1.0224-1.0224 2.68 0 3.7024 1.0224 1.0224 2.68 1.0224 3.7024 0 1.0224-1.0223 1.0224-2.68 0-3.7024-1.0223-1.0223-2.68-1.0223-3.7024 0zm2.7677 2.7701c-.5063.5063-1.3267.5063-1.833 0s-.5063-1.3266 0-1.833c.5063-.5062 1.3267-.5062 1.833 0 .5063.504.5063 1.3267 0 1.833zM16.356.2355l-1.6041 1.6042c-.314.314-.314.83 0 1.144L21.015 9.247c.314.314.83.314 1.144 0l1.6042-1.6041c.314-.314.314-.83 0-1.144L17.4976.2354c-.314-.314-.8276-.314-1.1416 0zM5.1173 20.734c.2848-.2848.2848-.7497 0-1.0345l-.8155-.8155c-.2848-.2848-.7497-.2848-1.0345 0l-1.6845 1.6845-.0024.0024-.4625-.4625c-.2556-.2556-.6718-.2556-.925 0-.2556.2556-.2556.6718 0 .925l2.775 2.775c.2556.2556.6718.2556.925 0 .2532-.2556.2556-.6718 0-.925l-.4625-.4625.0024-.0024zm8.4856-15.893-3.5637 3.5637c-.3164.3164-.3164.8374 0 1.1538l2.2006 2.2005c1.5554-1.1197 3.7365-.981 5.1361.4187l1.7819-1.7818c.3164-.3165.3164-.8374 0-1.1538l-4.401-4.401c-.3165-.319-.8374-.319-1.1539 0zm-2.2881 7.8455-1.2999-1.2999c-.3043-.3043-.8033-.3043-1.1076 0l-4.5836 4.586c-.3042.3043-.3042.8033 0 1.1076l2.5973 2.5973c.3043.3043.8033.3043 1.1076 0l2.9478-2.9527c-.6231-1.2877-.5112-2.8431.3384-4.0383z"/></svg>
  <text class="otext" x="342" y="588">OpenTelemetry</text>
  <svg x="560" y="572" width="22" height="22" viewBox="48 122 416 268"><path d="M254.75 302.25L285.25 326.75C285.25 326.75 308.587 309.418 325.75 306.875C343.75 304.208 362.954 314.244 380.75 326.208C407.629 344.279 430.25 367.208 430.25 367.208L456.75 341.208C456.75 341.208 383.686 262.047 325.75 269.208C287.75 273.905 254.75 302.25 254.75 302.25Z" fill="#ff5d5f"/><path d="M80.25 151.286L55.25 178.786C55.25 178.786 124.902 243.786 179.75 243.786C204.75 243.786 239.419 224.201 269.25 198.757C286.25 184.257 305.25 167.786 324.25 167.786C337.021 167.786 353.866 174.551 369.75 192.316C369.75 192.316 380.003 186.168 386.25 181.75C391.74 177.868 399.896 171.25 399.896 171.25C377.047 146.864 343.998 129.038 324.25 130.786C292.25 130.79 269.25 150.711 240.75 173.75C212.25 196.789 200.25 206.286 179.75 206.286C145.25 206.286 80.25 151.286 80.25 151.286Z" fill="#4e9cff"/><path d="M80.25 360.75L55.25 333.25C55.25 333.25 124.902 268.25 179.75 268.25C204.75 268.25 239.419 287.835 269.25 313.279C286.25 327.779 305.25 344.25 324.25 344.25C337.083 344.25 353.799 337.207 369.75 319.25C369.75 319.25 379.339 325.161 385.25 329.25C391.328 333.455 400.25 340.407 400.25 340.407C377.39 364.987 344.1 383.007 324.25 381.25C292.25 381.246 273.25 364.289 244.75 341.25C216.25 318.211 200.25 305.75 179.75 305.75C145.25 305.75 80.25 360.75 80.25 360.75Z" fill="#4e9cff"/><path d="M406.25 213.25C399.745 217.746 389.25 224.25 389.25 224.25C389.25 224.25 395.25 237.25 395.25 254.75C395.25 272.25 389.75 287.25 389.75 287.25C389.75 287.25 399.172 293.135 405.25 297.25C411.564 301.525 421.25 308.75 421.25 308.75C421.25 308.75 432.75 284.75 432.75 254.75C432.75 224.75 421.25 202.25 421.25 202.25C421.25 202.25 412.226 209.12 406.25 213.25Z" fill="#4e9cff"/><path d="M256.25 209.25L285.25 185.25C285.25 185.25 308.587 202.04 325.75 204.583C343.75 207.25 362.954 197.214 380.75 185.25C407.629 167.179 430.25 144.25 430.25 144.25L456.75 170.25C456.75 170.25 383.686 249.411 325.75 242.25C287.75 237.553 256.25 209.25 256.25 209.25Z" fill="#ff5d5f"/><path d="M186.255 130.25C223.755 130.25 255.25 162.25 255.25 162.25C255.25 162.25 246.487 169.155 240.75 173.75C234.775 178.536 225.25 186.25 225.25 186.25C225.25 186.25 208.755 168.75 186.255 168.75C177.028 168.75 165.039 174.292 152.255 185.25C142.391 193.705 132.129 204.216 125.255 217.25C119.31 228.52 116.068 241.802 115.755 255.75C115.361 273.269 121.571 291.634 131.755 306.25C138.58 316.046 146.726 323.418 155.255 329.75C166.323 337.968 177.865 343.75 186.255 343.75C195.217 343.75 203.274 340.635 209.255 337.75C218.755 332.25 226.25 325.75 226.25 325.75L255.75 350.25C255.75 350.25 243.75 362.25 227.255 371.25C216.595 376.507 202.895 381.75 186.255 381.75C169.626 381.75 150.315 372.915 132.255 359.25C120.579 350.416 109.135 339.948 100.255 327.25C85.7005 306.438 78.2004 281.118 78.2502 255.75C78.3008 230.065 86.5823 204.625 101.255 183.75C124.255 153.75 158.273 130.25 186.255 130.25Z" fill="#ff5d5f"/></svg>
  <text class="otext" x="590" y="588">Langfuse</text>
  <svg x="808" y="572" width="22" height="22" viewBox="0 0 24 24" fill="#632ca6"><path d="M19.57 17.04l-1.997-1.316-1.665 2.782-1.937-.567-1.706 2.604.087.82 9.274-1.71-.538-5.794zm-8.649-2.498l1.488-.204c.241.108.409.15.697.223.45.117.97.23 1.741-.16.18-.088.553-.43.704-.625l6.096-1.106.622 7.527-10.444 1.882zm11.325-2.712l-.602.115L20.488 0 .789 2.285l2.427 19.693 2.306-.334c-.184-.263-.471-.581-.96-.989-.68-.564-.44-1.522-.039-2.127.53-1.022 3.26-2.322 3.106-3.956-.056-.594-.15-1.368-.702-1.898-.02.22.017.432.017.432s-.227-.289-.34-.683c-.112-.15-.2-.199-.319-.4-.085.233-.073.503-.073.503s-.186-.437-.216-.807c-.11.166-.137.48-.137.48s-.241-.69-.186-1.062c-.11-.323-.436-.965-.343-2.424.6.421 1.924.321 2.44-.439.171-.251.288-.939-.086-2.293-.24-.868-.835-2.16-1.066-2.651l-.028.02c.122.395.374 1.223.47 1.625.293 1.218.372 1.642.234 2.204-.116.488-.397.808-1.107 1.165-.71.358-1.653-.514-1.713-.562-.69-.55-1.224-1.447-1.284-1.883-.062-.477.275-.763.445-1.153-.243.07-.514.192-.514.192s.323-.334.722-.624c.165-.109.262-.178.436-.323a9.762 9.762 0 0 0-.456.003s.42-.227.855-.392c-.318-.014-.623-.003-.623-.003s.937-.419 1.678-.727c.509-.208 1.006-.147 1.286.257.367.53.752.817 1.569.996.501-.223.653-.337 1.284-.509.554-.61.99-.688.99-.688s-.216.198-.274.51c.314-.249.66-.455.66-.455s-.134.164-.259.426l.03.043c.366-.22.797-.394.797-.394s-.123.156-.268.358c.277-.002.838.012 1.056.037 1.285.028 1.552-1.374 2.045-1.55.618-.22.894-.353 1.947.68.903.888 1.609 2.477 1.259 2.833-.294.295-.874-.115-1.516-.916a3.466 3.466 0 0 1-.716-1.562 1.533 1.533 0 0 0-.497-.85s.23.51.23.96c0 .246.03 1.165.424 1.68-.039.076-.057.374-.1.43-.458-.554-1.443-.95-1.604-1.067.544.445 1.793 1.468 2.273 2.449.453.927.186 1.777.416 1.997.065.063.976 1.197 1.15 1.767.306.994.019 2.038-.381 2.685l-1.117.174c-.163-.045-.273-.068-.42-.153.08-.143.241-.5.243-.572l-.063-.111c-.348.492-.93.97-1.414 1.245-.633.359-1.363.304-1.838.156-1.348-.415-2.623-1.327-2.93-1.566 0 0-.01.191.048.234.34.383 1.119 1.077 1.872 1.56l-1.605.177.759 5.908c-.337.048-.39.071-.757.124-.325-1.147-.946-1.895-1.624-2.332-.599-.384-1.424-.47-2.214-.314l-.05.059a2.851 2.851 0 0 1 1.863.444c.654.413 1.181 1.481 1.375 2.124.248.822.42 1.7-.248 2.632-.476.662-1.864 1.028-2.986.237.3.481.705.876 1.25.95.809.11 1.577-.03 2.106-.574.452-.464.69-1.434.628-2.456l.714-.104.258 1.834 11.827-1.424zM15.05 6.848c-.034.075-.085.125-.007.37l.004.014.013.032.032.073c.14.287.295.558.552.696.067-.011.136-.019.207-.023.242-.01.395.028.492.08.009-.048.01-.119.005-.222-.018-.364.072-.982-.626-1.308-.264-.122-.634-.084-.757.068a.302.302 0 0 1 .058.013c.186.066.06.13.027.207m1.958 3.392c-.092-.05-.52-.03-.821.005-.574.068-1.193.267-1.328.372-.247.191-.135.523.047.66.511.382.96.638 1.432.575.29-.038.546-.497.728-.914.124-.288.124-.598-.058-.698m-5.077-2.942c.162-.154-.805-.355-1.556.156-.554.378-.571 1.187-.041 1.646.053.046.096.078.137.104a4.77 4.77 0 0 1 1.396-.412c.113-.125.243-.345.21-.745-.044-.542-.455-.456-.146-.749"/></svg>
  <text class="otext" x="838" y="588">Datadog</text>

  <svg x="64" y="616" width="22" height="22" viewBox="0 0 24 24" fill="#f46800"><path d="M23.02 10.59a8.578 8.578 0 0 0-.862-3.034 8.911 8.911 0 0 0-1.789-2.445c.337-1.342-.413-2.505-.413-2.505-1.292-.08-2.113.4-2.416.62-.052-.02-.102-.044-.154-.064-.22-.089-.446-.172-.677-.247-.231-.073-.47-.14-.711-.197a9.867 9.867 0 0 0-.875-.161C14.557.753 12.94 0 12.94 0c-1.804 1.145-2.147 2.744-2.147 2.744l-.018.093c-.098.029-.2.057-.298.088-.138.042-.275.094-.413.143-.138.055-.275.107-.41.166a8.869 8.869 0 0 0-1.557.87l-.063-.029c-2.497-.955-4.716.195-4.716.195-.203 2.658.996 4.33 1.235 4.636a11.608 11.608 0 0 0-.607 2.635C1.636 12.677.953 15.014.953 15.014c1.926 2.214 4.171 2.351 4.171 2.351.003-.002.006-.002.006-.005.285.509.615.994.986 1.446.156.19.32.371.488.548-.704 2.009.099 3.68.099 3.68 2.144.08 3.553-.937 3.849-1.173a9.784 9.784 0 0 0 3.164.501h.08l.055-.003.107-.002.103-.005.003.002c1.01 1.44 2.788 1.646 2.788 1.646 1.264-1.332 1.337-2.653 1.337-2.94v-.058c0-.02-.003-.039-.003-.06.265-.187.52-.387.758-.6a7.875 7.875 0 0 0 1.415-1.7c1.43.083 2.437-.885 2.437-.885-.236-1.49-1.085-2.216-1.264-2.354l-.018-.013-.016-.013a.217.217 0 0 1-.031-.02c.008-.092.016-.18.02-.27.011-.162.016-.323.016-.48v-.253l-.005-.098-.008-.135a1.891 1.891 0 0 0-.01-.13c-.003-.042-.008-.083-.013-.125l-.016-.124-.018-.122a6.215 6.215 0 0 0-2.032-3.73 6.015 6.015 0 0 0-3.222-1.46 6.292 6.292 0 0 0-.85-.048l-.107.002h-.063l-.044.003-.104.008a4.777 4.777 0 0 0-3.335 1.695c-.332.4-.592.84-.768 1.297a4.594 4.594 0 0 0-.312 1.817l.003.091c.005.055.007.11.013.164a3.615 3.615 0 0 0 .698 1.82 3.53 3.53 0 0 0 1.827 1.282c.33.098.66.14.971.137.039 0 .078 0 .114-.002l.063-.003c.02 0 .041-.003.062-.003.034-.002.065-.007.099-.01.007 0 .018-.003.028-.003l.031-.005.06-.008a1.18 1.18 0 0 0 .112-.02c.036-.008.072-.013.109-.024a2.634 2.634 0 0 0 .914-.415c.028-.02.056-.041.085-.065a.248.248 0 0 0 .039-.35.244.244 0 0 0-.309-.06l-.078.042c-.09.044-.184.083-.283.116a2.476 2.476 0 0 1-.475.096c-.028.003-.054.006-.083.006l-.083.002c-.026 0-.054 0-.08-.002l-.102-.006h-.012l-.024.006c-.016-.003-.031-.003-.044-.006-.031-.002-.06-.007-.091-.01a2.59 2.59 0 0 1-.724-.213 2.557 2.557 0 0 1-.667-.438 2.52 2.52 0 0 1-.805-1.475 2.306 2.306 0 0 1-.029-.444l.006-.122v-.023l.002-.031c.003-.021.003-.04.005-.06a3.163 3.163 0 0 1 1.352-2.29 3.12 3.12 0 0 1 .937-.43 2.946 2.946 0 0 1 .776-.101h.06l.07.002.045.003h.026l.07.005a4.041 4.041 0 0 1 1.635.49 3.94 3.94 0 0 1 1.602 1.662 3.77 3.77 0 0 1 .397 1.414l.005.076.003.075c.002.026.002.05.002.075 0 .024.003.052 0 .07v.065l-.002.073-.008.174a6.195 6.195 0 0 1-.08.639 5.1 5.1 0 0 1-.267.927 5.31 5.31 0 0 1-.624 1.13 5.052 5.052 0 0 1-3.237 2.014 4.82 4.82 0 0 1-.649.066l-.039.003h-.287a6.607 6.607 0 0 1-1.716-.265 6.776 6.776 0 0 1-3.4-2.274 6.75 6.75 0 0 1-.746-1.15 6.616 6.616 0 0 1-.714-2.596l-.005-.083-.002-.02v-.056l-.003-.073v-.096l-.003-.104v-.07l.003-.163c.008-.22.026-.45.054-.678a8.707 8.707 0 0 1 .28-1.355c.128-.444.286-.872.473-1.277a7.04 7.04 0 0 1 1.456-2.1 5.925 5.925 0 0 1 .953-.763c.169-.111.343-.213.524-.306.089-.05.182-.091.273-.135.047-.02.093-.042.138-.062a7.177 7.177 0 0 1 .714-.267l.145-.045c.049-.015.098-.026.148-.041.098-.029.197-.052.296-.076.049-.013.1-.02.15-.033l.15-.032.151-.028.076-.013.075-.01.153-.024c.057-.01.114-.013.171-.023l.169-.021c.036-.003.073-.008.106-.01l.073-.008.036-.003.042-.002c.057-.003.114-.008.171-.01l.086-.006h.023l.037-.003.145-.007a7.999 7.999 0 0 1 1.708.125 7.917 7.917 0 0 1 2.048.68 8.253 8.253 0 0 1 1.672 1.09l.09.077.089.078c.06.052.114.107.171.159.057.052.112.106.166.16.052.055.107.107.159.164a8.671 8.671 0 0 1 1.41 1.978c.012.026.028.052.04.078l.04.078.075.156c.023.051.05.1.07.153l.065.15a8.848 8.848 0 0 1 .45 1.34.19.19 0 0 0 .201.142.186.186 0 0 0 .172-.184c.01-.246.002-.532-.024-.856z"/></svg>
  <text class="otext" x="94" y="632">Grafana</text>
  <svg x="312" y="616" width="22" height="22" viewBox="0 0 24 24" fill="#ff6a00"><path d="M3.996 4.517h5.291L8.01 6.324 4.153 7.506a1.668 1.668 0 0 0-1.165 1.601v5.786a1.668 1.668 0 0 0 1.165 1.6l3.857 1.183 1.277 1.807H3.996A3.996 3.996 0 0 1 0 15.487V8.513a3.996 3.996 0 0 1 3.996-3.996m16.008 0h-5.291l1.277 1.807 3.857 1.182c.715.227 1.17.889 1.165 1.601v5.786a1.668 1.668 0 0 1-1.165 1.6l-3.857 1.183-1.277 1.807h5.291A3.996 3.996 0 0 0 24 15.487V8.513a3.996 3.996 0 0 0-3.996-3.996m-4.007 8.345H8.002v-1.804h7.995Z"/></svg>
  <text class="otext" x="342" y="632">Aliyun SLS</text>
  <svg x="560" y="616" width="22" height="22" viewBox="0 0 24 24" fill="none" stroke="#5b6b7f" stroke-width="2" stroke-linecap="round" stroke-linejoin="round"><ellipse cx="12" cy="6" rx="7.5" ry="3"/><path d="M4.5 6v12c0 1.66 3.36 3 7.5 3s7.5-1.34 7.5-3V6"/><path d="M4.5 12c0 1.66 3.36 3 7.5 3s7.5-1.34 7.5-3"/></svg>
  <text class="otext" x="590" y="632">S3 · GCS · Blob</text>
  <text class="cap" x="808" y="632">+ any OTLP receiver</text>
</svg>
